<svg width="52" height="52" viewBox="0 0 52 52" fill="none" xmlns="http://www.w3.org/2000/svg">
<path d="M32.1953 3.15067H4.57031C2.0413 3.15067 0 5.19197 0 7.72098V26.0022C0 28.531 2.0413 30.5725 4.57031 30.5725H6.09375V35.1428C6.09375 36.2435 7.23338 37.0405 8.34844 36.4835C8.37891 36.453 8.43995 36.453 8.47041 36.4224C16.8509 30.8025 14.9728 32.0556 16.8493 30.8162C17.093 30.6638 17.3672 30.5725 17.6719 30.5725H32.1953C34.7243 30.5725 36.7656 28.531 36.7656 26.0022V7.72098C36.7656 5.19197 34.7243 3.15067 32.1953 3.15067ZM20.0078 21.4319H7.61719C5.60899 21.4319 5.60077 18.385 7.61719 18.385H20.0078C22.016 18.385 22.0242 21.4319 20.0078 21.4319ZM29.1484 15.3382H7.61719C5.60899 15.3382 5.60077 12.2913 7.61719 12.2913H29.1484C31.1566 12.2913 31.1649 15.3382 29.1484 15.3382Z" fill="white"/>
<path d="M47.4297 15.3382H39.8125V26.0022C39.8125 30.2069 36.4 33.6194 32.1953 33.6194H18.1289L15.2344 35.5389V38.1897C15.2344 40.7185 17.2757 42.76 19.8047 42.76H34.7851L43.5296 48.6099C44.7231 49.2726 45.9062 48.4667 45.9062 47.3304V42.76H47.4297C49.9587 42.76 52 40.7185 52 38.1897V19.9085C52 17.3796 49.9587 15.3382 47.4297 15.3382Z" fill="white"/>
</svg>
